# xmcd
#
# Track frame offsets:
#	150
#	13872
#	23110
#	39162
#	48801
#	57299
#	73646
#	90898
#	102787
#	119882
#	132241
#	144269
#	154943
#	168366
#	180651
#	192322
#
# Disc length: 2709 seconds
#
# Revision: 1
# Processed by: cddbd v1.5.2PL0 Copyright (c) Steve Scherf et al.
# Submitted via: EZCDAudioConverter 1.3.4.1
#
DISCID=cf0a9310
DTITLE=Peter Thomas - Peter Scores
DYEAR=2002
DGENRE=
TTITLE0=Angels Who Burn Their Wings
TTITLE1=Panki
TTITLE2=Otran Limited Respettivo
TTITLE3=Cresta In Slow
TTITLE4=Die Weibchen
TTITLE5=Der Stoff Aus Dem Die Träume Sind
TTITLE6=Surf With Gunter
TTITLE7=April Rainbows
TTITLE8=Mr. P.
TTITLE9=Sweet Girl - Sweet Love
TTITLE10=Oh, Oh, Oooh, Ei Ei Ei - Wo Immer Es Auch Sei
TTITLE11=Modern Sex
TTITLE12=Piano Strings In Love
TTITLE13=St. Tropez
TTITLE14=Coitus Crash
TTITLE15=Love and Sax
EXTD=
EXTT0=
EXTT1=
EXTT2=
EXTT3=
EXTT4=
EXTT5=
EXTT6=
EXTT7=
EXTT8=
EXTT9=
EXTT10=
EXTT11=
EXTT12=
EXTT13=
EXTT14=
EXTT15=
PLAYORDER=
